<?xml version="1.0" encoding="utf-8"?>
<!-- Generator: Adobe Illustrator 16.0.0, SVG Export Plug-In . SVG Version: 6.00 Build 0)  -->
<!DOCTYPE svg PUBLIC "-//W3C//DTD SVG 1.1 Tiny//EN" "http://www.w3.org/Graphics/SVG/1.1/DTD/svg11-tiny.dtd">
<svg version="1.1" baseProfile="tiny" id="Layer_1" xmlns="http://www.w3.org/2000/svg" xmlns:xlink="http://www.w3.org/1999/xlink"
	 x="0px" y="0px" width="20.191px" height="21.395px" viewBox="0 0 20.191 21.395" overflow="scroll" xml:space="preserve">
<g>
	<path fill-rule="evenodd" fill="#5A6B7C" d="M10.083,4.507c-1.041,0-1.993,0.169-2.823,0.888C5.468,3.603,3.417,5.681,4.939,7.419
		c-0.979,2.288-0.016,4.299,2.618,6.073c1.932,1.127,1.482,2.518,0.81,4.496c-1.322,3.357-6.423,2.293-7.681-1.523
		C0.249,15.109,0,13.605,0,12.064C0,5.401,4.471,0,10.083,0c5.613,0,10.082,5.401,10.082,12.064c0,1.541-0.248,3.045-0.686,4.4
		c-1.256,3.816-6.357,4.881-7.68,1.523c-0.672-1.979-1.123-3.369,0.809-4.496c2.635-1.773,3.598-3.785,2.619-6.073
		c1.521-1.738-0.529-3.816-2.32-2.024C12.076,4.676,11.123,4.507,10.083,4.507L10.083,4.507z M7.697,9.352
		c0.465,0,0.842,0.299,0.842,0.669c0,0.369-0.377,0.669-0.842,0.669s-0.842-0.3-0.842-0.669C6.855,9.651,7.232,9.352,7.697,9.352
		L7.697,9.352z M12.467,9.352c-0.465,0-0.842,0.299-0.842,0.669c0,0.369,0.377,0.669,0.842,0.669c0.467,0,0.844-0.3,0.844-0.669
		C13.311,9.651,12.934,9.352,12.467,9.352L12.467,9.352z M10.083,11.955c-0.584,0-1.058,0.357-1.058,0.799s0.474,0.799,1.058,0.799
		c0.584,0,1.058-0.357,1.058-0.799S10.667,11.955,10.083,11.955L10.083,11.955z"/>
	<text transform="matrix(1 0 0 1 14.3027 21.0879)" fill="#5A6B7C" font-family="'TimesNewRomanPSMT'" font-size="1">Cute logo here</text>
</g>
</svg>
